HIERARCHY
ROOT MidHip
{
    OFFSET 0.0 0.0 0.0
    CHANNELS 6 Xposition Yposition Zposition Zrotation Xrotation Yrotation
    JOINT Spine
    {
        OFFSET 0.0 0.0 14.114376428890862
        CHANNELS 3 Zrotation Xrotation Yrotation
        JOINT MidShoulder
        {
            OFFSET 0.0 0.0 14.11437642889086
            CHANNELS 3 Zrotation Xrotation Yrotation
            JOINT Nose
            {
                OFFSET 0.0 0.0 10.924453949414325
                CHANNELS 3 Zrotation Xrotation Yrotation
                End Site
                {
                    OFFSET 0.0 0.0 4.36978157976573
                }
            }
            JOINT RightShoulder
            {
                OFFSET -9.441655044344756 0.0 0.0
                CHANNELS 3 Zrotation Xrotation Yrotation
                JOINT RightElbow
                {
                    OFFSET -13.869596230230565 0.0 0.0
                    CHANNELS 3 Zrotation Xrotation Yrotation
                    JOINT RightWrist
                    {
                        OFFSET -11.755625707283711 0.0 0.0
                        CHANNELS 3 Zrotation Xrotation Yrotation
                        End Site
                        {
                            OFFSET -3.3249930618844856 3.3249930618844856 0.0
                        }
                        End Site
                        {
                            OFFSET -4.702250282913484 0.0 0.0
                        }
                        End Site
                        {
                            OFFSET -3.3249930618844856 -3.3249930618844856 0.0
                        }
                    }
                }
            }
            JOINT LeftShoulder
            {
                OFFSET 9.441655044344756 0.0 0.0
                CHANNELS 3 Zrotation Xrotation Yrotation
                JOINT LeftElbow
                {
                    OFFSET 13.869596230230565 0.0 0.0
                    CHANNELS 3 Zrotation Xrotation Yrotation
                    JOINT LeftWrist
                    {
                        OFFSET 11.755625707283711 0.0 0.0
                        CHANNELS 3 Zrotation Xrotation Yrotation
                        End Site
                        {
                            OFFSET 3.3249930618844856 3.3249930618844856 0.0
                        }
                        End Site
                        {
                            OFFSET 4.702250282913484 0.0 0.0
                        }
                        End Site
                        {
                            OFFSET 3.3249930618844856 -3.3249930618844856 0.0
                        }
                    }
                }
            }
        }
    }
    JOINT RightHip
    {
        OFFSET -5.362254803615982 0.0 0.0
        CHANNELS 3 Zrotation Xrotation Yrotation
        JOINT RightKnee
        {
            OFFSET 0.0 0.0 -18.772969047396877
            CHANNELS 3 Zrotation Xrotation Yrotation
            JOINT RightAnkle
            {
                OFFSET 0.0 0.0 -20.040860796270387
                CHANNELS 3 Zrotation Xrotation Yrotation
                End Site
                {
                    OFFSET 0.0 5.668411427943369 -5.668411427943369
                }
                End Site
                {
                    OFFSET 0.0 -5.668411427943369 -5.668411427943369
                }
            }
        }
    }
    JOINT LeftHip
    {
        OFFSET 5.362254803615982 0.0 0.0
        CHANNELS 3 Zrotation Xrotation Yrotation
        JOINT LeftKnee
        {
            OFFSET 0.0 0.0 -18.772969047396877
            CHANNELS 3 Zrotation Xrotation Yrotation
            JOINT LeftAnkle
            {
                OFFSET 0.0 0.0 -20.040860796270387
                CHANNELS 3 Zrotation Xrotation Yrotation
                End Site
                {
                    OFFSET 0.0 5.668411427943369 -5.668411427943369
                }
                End Site
                {
                    OFFSET 0.0 -5.668411427943369 -5.668411427943369
                }
            }
        }
    }
}
MOTION
Frames: 8
Frame Time: 0.008341666666666667
-9.804656995362507 23.827016853043077 17.266913677503116 76.96324131873664 7.3114661367085 93.98406373231606 0.06517198206304561 -9.070448294868644 -6.361783543539611 -1.8238775071648696 -2.5491835236831466e-14 2.7751867637881576e-15 1.7655625192200634e-31 -6.3611093629270335e-15 3.1805546814635168e-15 41.45550198934276 -4.507418541863802 -57.499533691708706 133.3871005732996 3.325288755127456e-15 8.358820452029032e-15 28.049270851737457 -0.1309263049787719 0.06975914118366731 -46.37954140610259 -18.86682581535836 56.8197939734439 -135.80173194835922 1.0502014546482857e-14 -2.4860702169359283e-14 -13.889096606741894 -4.160362250431916 178.97226860820106 0.105548688326334 -14.496458978066574 -0.8526484123067596 -0.19115380426864326 8.529777387384055 -1.1893488299358872 -6.3611093629270335e-15 0.0 0.0 0.10528930633189403 -14.462330231957413 2.0986977943430043 0.3003699421182371 10.15108761289081 -4.1697688497733605 3.1805546814635168e-15 0.0 0.0
-12.173745034595337 29.76412611298787 21.62311828783419 77.16544565024054 7.16323297081545 94.05904040735852 -0.016055523394505694 -9.149547262762916 -6.323227969645354 -1.7989225100698023 -6.160613232093528e-15 -1.2820507253620814e-14 0.0 6.3611093629270335e-15 0.0 41.938098707221876 -5.103670437549543 -57.87641123520559 133.35054639716915 1.205989278454897e-15 2.1301698372203304e-14 27.331796878357633 -0.07239246529401223 0.03741541435620479 -46.177363815762334 -18.842805028379754 56.68862895254148 -135.54940338447815 1.0573961077067127e-14 -7.756424726052638e-15 -13.279806417662902 0.5179407564466164 -179.87775857376008 -0.024946401457544787 -14.04972597072309 -1.5149725010715003 -0.20412553850232446 8.223083831658004 -0.3670595839351982 -6.3611093629270335e-15 6.3611093629270335e-15 3.531125038440127e-31 -0.024344894333920016 -13.723917433116172 1.486298344156751 0.26293090077694387 9.393668166345837 -3.6774597861491176 0.0 0.0 0.0
-14.548131997308014 35.720931665046116 25.99189798505242 77.27701465748386 6.970193447997195 94.15241184472664 -0.1076294497520336 -9.19998514626807 -6.333745731367197 -1.6600402928649929 -6.68295823603907e-15 2.216939912468696e-14 0.0 0.0 0.0 42.314818640690945 -5.562234524890076 -58.194644778143974 133.36541522645666 -3.3237068694787837e-15 -8.359449581163552e-15 27.154334216960986 0.9999228566981965 -0.5128437743876436 -46.16134233791899 -18.81808686637593 56.66055517236681 -135.3515161798876 1.2081260078657273e-15 2.9421692050080854e-15 -12.667313298324208 4.41282933966619 -179.00924998049152 -0.16256613165618922 -13.746557423067424 -2.1185115337220064 -0.20026532774044303 7.94626808367696 0.39235863889350614 -3.1805546814635168e-15 0.0 0.0 -0.1567554029372208 -13.272899357594463 0.9586611529421311 0.25775840148797263 8.922195147595275 -3.263049038466838 0.0 0.0 0.0
-16.914460004975908 41.6831739269461 30.37196683533639 77.38113977478095 6.8301455381685985 94.25289149043586 -0.19581932441345123 -9.217318572509724 -6.3588900801708625 -1.5444903651542832 -2.1433460602601296e-16 1.5901328960849374e-14 1.7655625192200634e-31 -6.361109362927035e-15 3.1805546814635176e-15 42.75429499395787 -5.774658341362016 -58.43775005217379 133.40826404480418 0.0 0.0 27.022622131900853 0.8234846346540461 -0.41997402772290654 -46.18003799528212 -18.822378790429713 56.63082590785598 -135.16165524233122 9.519324204455417e-15 6.394492298345714e-15 -12.444860147716879 7.387057569946683 -178.37473436921172 -0.28963359241080183 -13.496703419664358 -2.693167948442213 -0.1978002636299213 7.753857549166956 1.0806912006699192 -3.1805546814635168e-15 0.0 0.0 -0.27592213584560277 -12.879572830092519 0.5118181932569733 0.26247377734402316 8.529709705417591 -2.949325720531056 3.1805546814635168e-15 0.0 0.0
-16.715596312588545 41.61596055824975 30.478567265159295 77.74196139997058 6.405211284247633 94.43614632516343 -0.3639128875459051 -9.310727211847102 -6.372354948768295 -1.3255256991500506 7.357981663448378e-17 -6.360683794821278e-15 0.0 0.0 0.0 43.95633187747714 -6.280252226949791 -59.49867259652027 133.66968636008434 -1.4620608110541402e-15 -6.255878876901174e-16 26.202054688252773 1.790281275210638 -0.8807946039271892 -45.79920456100402 -18.874484986423685 56.24930168733512 -134.69237467429522 1.077046088706538e-14 9.29062613152551e-15 -12.311389775614684 17.938939004575193 -176.15437931708433 -0.4965590679620665 -12.609820030001519 -3.9139527810005252 -0.20108695423625034 6.986208075073707 2.55062861922267 0.0 0.0 0.0 -0.45151584896619934 -11.49791034117095 -0.5243348181484891 0.21871806673536823 7.16363058634716 -2.2303539666943406 -3.1805546814635168e-15 -6.3611093629270335e-15 -1.7655625192200634e-31
-16.620118121297452 41.656692838256944 30.579761895176325 77.90869084934425 5.953959899888883 94.6229960757445 -0.48827693241632225 -9.338200983686203 -6.415570565817304 -1.1269692756000775 -3.127917671636192e-17 3.1804008701551193e-15 6.3611093629270335e-15 0.0 0.0 45.26717501805821 -6.526348677599252 -59.929014463838186 133.6980480049535 -7.311078002756854e-15 -3.126130027482329e-15 25.27149012375543 0.10461672699473044 -0.049388387587057034 -45.990961633239074 -18.49519651475056 56.19156612924203 -134.535332894535 -9.507757898488109e-16 1.419206070424684e-14 -12.494691124160049 21.825734968389682 -175.29023378049226 -0.6423031999029617 -12.205696478410802 -4.9302257711940625 -0.21807719629437552 6.562604176135687 3.786067632969589 -3.1805546814635164e-15 0.0 0.0 -0.5718787480091095 -10.90142050158262 -1.4156067961110406 0.1873704451065404 6.654514330812914 -1.5442461397670992 0.0 0.0 0.0
-16.569610164049735 41.71600076963774 30.657524644635792 78.00726623702266 5.550633175949888 94.76874592295204 -0.5987982263086963 -9.301964917123888 -6.466382582807039 -0.9298995340964737 -1.54857681382061e-16 1.9082699757701445e-14 0.0 0.0 0.0 46.12138041292388 -6.730713826706822 -60.02484642573376 133.91420879247787 -4.390177196544714e-15 -1.867399894758126e-15 23.745138612354605 -1.573232029466784 0.6919587331039391 -46.13898673117231 -18.289960096427567 56.25745537909698 -134.41462322968408 6.800212326376708e-15 -1.6657335048954804e-14 -12.774471817160395 23.766706239790125 -174.77917472049717 -0.7729103048355432 -11.937376107022153 -5.702279331644694 -0.21416079045700256 6.19991785285931 4.727279116620874 -3.1805546814635168e-15 0.0 0.0 -0.6840803320771351 -10.598509313326673 -2.0635376030942876 0.18663321482182813 6.448647060351554 -1.002456415628034 0.0 0.0 0.0
-16.546570213654313 41.7864452370664 30.711884550443624 78.06050196595955 5.189894973531788 94.87735624957038 -0.6921467585161536 -9.270020698839415 -6.530617715514921 -0.7288859609809948 -1.9123403070964625e-14 6.239597603740208e-15 0.0 0.0 0.0 46.93622509881726 -6.577654047596692 -60.20735216570831 134.12278392305382 4.393568891544293e-15 1.859405974836617e-15 22.636999890319057 -2.5235554191251097 1.0519088381730886 -46.44055634898703 -18.120165261420198 56.26643249683429 -134.3933989229455 9.561980550439592e-15 6.3305286521860355e-15 -12.107377727260475 23.30546403633771 -175.1489508529471 -0.8826197868990469 -11.757255530471193 -6.236843253269915 -0.19843371786497133 5.919294664430366 5.344535080832803 -3.1805546814635164e-15 -6.361109362927033e-15 -1.7655625192200634e-31 -0.7815030409776867 -10.44184818911598 -2.4386949915062366 0.2094786687298969 6.40470949639027 -0.8018309055147028 -3.1805546814635168e-15 0.0 0.0
